G04 #@! TF.GenerationSoftware,KiCad,Pcbnew,(5.1.2)-1*
G04 #@! TF.CreationDate,2021-03-02T12:14:59-08:00*
G04 #@! TF.ProjectId,SpankulatorPanel,5370616e-6b75-46c6-9174-6f7250616e65,rev?*
G04 #@! TF.SameCoordinates,Original*
G04 #@! TF.FileFunction,Soldermask,Top*
G04 #@! TF.FilePolarity,Negative*
%FSLAX46Y46*%
G04 Gerber Fmt 4.6, Leading zero omitted, Abs format (unit mm)*
G04 Created by KiCad (PCBNEW (5.1.2)-1) date 2021-03-02 12:14:59*
%MOMM*%
%LPD*%
G04 APERTURE LIST*
%ADD10C,0.100000*%
G04 APERTURE END LIST*
D10*
G36*
X103744098Y-162947033D02*
G01*
X104208350Y-163139332D01*
X104208352Y-163139333D01*
X104626168Y-163418509D01*
X104981491Y-163773832D01*
X105260667Y-164191648D01*
X105260668Y-164191650D01*
X105452967Y-164655902D01*
X105551000Y-165148747D01*
X105551000Y-165651253D01*
X105452967Y-166144098D01*
X105260668Y-166608350D01*
X105260667Y-166608352D01*
X104981491Y-167026168D01*
X104626168Y-167381491D01*
X104208352Y-167660667D01*
X104208351Y-167660668D01*
X104208350Y-167660668D01*
X103744098Y-167852967D01*
X103251253Y-167951000D01*
X102748747Y-167951000D01*
X102255902Y-167852967D01*
X101791650Y-167660668D01*
X101791649Y-167660668D01*
X101791648Y-167660667D01*
X101373832Y-167381491D01*
X101018509Y-167026168D01*
X100739333Y-166608352D01*
X100739332Y-166608350D01*
X100547033Y-166144098D01*
X100449000Y-165651253D01*
X100449000Y-165148747D01*
X100547033Y-164655902D01*
X100739332Y-164191650D01*
X100739333Y-164191648D01*
X101018509Y-163773832D01*
X101373832Y-163418509D01*
X101791648Y-163139333D01*
X101791650Y-163139332D01*
X102255902Y-162947033D01*
X102748747Y-162849000D01*
X103251253Y-162849000D01*
X103744098Y-162947033D01*
X103744098Y-162947033D01*
G37*
G36*
X68244098Y-162947033D02*
G01*
X68708350Y-163139332D01*
X68708352Y-163139333D01*
X69126168Y-163418509D01*
X69481491Y-163773832D01*
X69760667Y-164191648D01*
X69760668Y-164191650D01*
X69952967Y-164655902D01*
X70051000Y-165148747D01*
X70051000Y-165651253D01*
X69952967Y-166144098D01*
X69760668Y-166608350D01*
X69760667Y-166608352D01*
X69481491Y-167026168D01*
X69126168Y-167381491D01*
X68708352Y-167660667D01*
X68708351Y-167660668D01*
X68708350Y-167660668D01*
X68244098Y-167852967D01*
X67751253Y-167951000D01*
X67248747Y-167951000D01*
X66755902Y-167852967D01*
X66291650Y-167660668D01*
X66291649Y-167660668D01*
X66291648Y-167660667D01*
X65873832Y-167381491D01*
X65518509Y-167026168D01*
X65239333Y-166608352D01*
X65239332Y-166608350D01*
X65047033Y-166144098D01*
X64949000Y-165651253D01*
X64949000Y-165148747D01*
X65047033Y-164655902D01*
X65239332Y-164191650D01*
X65239333Y-164191648D01*
X65518509Y-163773832D01*
X65873832Y-163418509D01*
X66291648Y-163139333D01*
X66291650Y-163139332D01*
X66755902Y-162947033D01*
X67248747Y-162849000D01*
X67751253Y-162849000D01*
X68244098Y-162947033D01*
X68244098Y-162947033D01*
G37*
G36*
X63379487Y-154998996D02*
G01*
X63616253Y-155097068D01*
X63616255Y-155097069D01*
X63829339Y-155239447D01*
X64010553Y-155420661D01*
X64152932Y-155633747D01*
X64251004Y-155870513D01*
X64301000Y-156121861D01*
X64301000Y-156378139D01*
X64251004Y-156629487D01*
X64152932Y-156866253D01*
X64152931Y-156866255D01*
X64010553Y-157079339D01*
X63829339Y-157260553D01*
X63616255Y-157402931D01*
X63616254Y-157402932D01*
X63616253Y-157402932D01*
X63379487Y-157501004D01*
X63128139Y-157551000D01*
X62871861Y-157551000D01*
X62620513Y-157501004D01*
X62383747Y-157402932D01*
X62383746Y-157402932D01*
X62383745Y-157402931D01*
X62170661Y-157260553D01*
X61989447Y-157079339D01*
X61847069Y-156866255D01*
X61847068Y-156866253D01*
X61748996Y-156629487D01*
X61699000Y-156378139D01*
X61699000Y-156121861D01*
X61748996Y-155870513D01*
X61847068Y-155633747D01*
X61989447Y-155420661D01*
X62170661Y-155239447D01*
X62383745Y-155097069D01*
X62383747Y-155097068D01*
X62620513Y-154998996D01*
X62871861Y-154949000D01*
X63128139Y-154949000D01*
X63379487Y-154998996D01*
X63379487Y-154998996D01*
G37*
G36*
X107879487Y-154998996D02*
G01*
X108116253Y-155097068D01*
X108116255Y-155097069D01*
X108329339Y-155239447D01*
X108510553Y-155420661D01*
X108652932Y-155633747D01*
X108751004Y-155870513D01*
X108801000Y-156121861D01*
X108801000Y-156378139D01*
X108751004Y-156629487D01*
X108652932Y-156866253D01*
X108652931Y-156866255D01*
X108510553Y-157079339D01*
X108329339Y-157260553D01*
X108116255Y-157402931D01*
X108116254Y-157402932D01*
X108116253Y-157402932D01*
X107879487Y-157501004D01*
X107628139Y-157551000D01*
X107371861Y-157551000D01*
X107120513Y-157501004D01*
X106883747Y-157402932D01*
X106883746Y-157402932D01*
X106883745Y-157402931D01*
X106670661Y-157260553D01*
X106489447Y-157079339D01*
X106347069Y-156866255D01*
X106347068Y-156866253D01*
X106248996Y-156629487D01*
X106199000Y-156378139D01*
X106199000Y-156121861D01*
X106248996Y-155870513D01*
X106347068Y-155633747D01*
X106489447Y-155420661D01*
X106670661Y-155239447D01*
X106883745Y-155097069D01*
X106883747Y-155097068D01*
X107120513Y-154998996D01*
X107371861Y-154949000D01*
X107628139Y-154949000D01*
X107879487Y-154998996D01*
X107879487Y-154998996D01*
G37*
G36*
X65634239Y-143561467D02*
G01*
X65948282Y-143623934D01*
X66539926Y-143869001D01*
X67072392Y-144224784D01*
X67525216Y-144677608D01*
X67880999Y-145210074D01*
X68126066Y-145801718D01*
X68251000Y-146429804D01*
X68251000Y-147070196D01*
X68126066Y-147698282D01*
X67880999Y-148289926D01*
X67525216Y-148822392D01*
X67072392Y-149275216D01*
X66539926Y-149630999D01*
X65948282Y-149876066D01*
X65634239Y-149938533D01*
X65320197Y-150001000D01*
X64679803Y-150001000D01*
X64365761Y-149938533D01*
X64051718Y-149876066D01*
X63460074Y-149630999D01*
X62927608Y-149275216D01*
X62474784Y-148822392D01*
X62119001Y-148289926D01*
X61873934Y-147698282D01*
X61749000Y-147070196D01*
X61749000Y-146429804D01*
X61873934Y-145801718D01*
X62119001Y-145210074D01*
X62474784Y-144677608D01*
X62927608Y-144224784D01*
X63460074Y-143869001D01*
X64051718Y-143623934D01*
X64365761Y-143561467D01*
X64679803Y-143499000D01*
X65320197Y-143499000D01*
X65634239Y-143561467D01*
X65634239Y-143561467D01*
G37*
G36*
X64366191Y-129809727D02*
G01*
X64569113Y-129850091D01*
X65142558Y-130087620D01*
X65658645Y-130432459D01*
X66097541Y-130871355D01*
X66442380Y-131387442D01*
X66679909Y-131960887D01*
X66801000Y-132569654D01*
X66801000Y-133190346D01*
X66679909Y-133799113D01*
X66442380Y-134372558D01*
X66097541Y-134888645D01*
X65658645Y-135327541D01*
X65142558Y-135672380D01*
X64569113Y-135909909D01*
X64366191Y-135950273D01*
X63960348Y-136031000D01*
X63339652Y-136031000D01*
X62933809Y-135950273D01*
X62730887Y-135909909D01*
X62157442Y-135672380D01*
X61641355Y-135327541D01*
X61202459Y-134888645D01*
X60857620Y-134372558D01*
X60620091Y-133799113D01*
X60499000Y-133190346D01*
X60499000Y-132569654D01*
X60620091Y-131960887D01*
X60857620Y-131387442D01*
X61202459Y-130871355D01*
X61641355Y-130432459D01*
X62157442Y-130087620D01*
X62730887Y-129850091D01*
X62933809Y-129809727D01*
X63339652Y-129729000D01*
X63960348Y-129729000D01*
X64366191Y-129809727D01*
X64366191Y-129809727D01*
G37*
G36*
X85575256Y-122941298D02*
G01*
X85681579Y-122962447D01*
X85982042Y-123086903D01*
X86252451Y-123267585D01*
X86482415Y-123497549D01*
X86663097Y-123767958D01*
X86787553Y-124068421D01*
X86851000Y-124387391D01*
X86851000Y-124712609D01*
X86787553Y-125031579D01*
X86663097Y-125332042D01*
X86482415Y-125602451D01*
X86252451Y-125832415D01*
X85982042Y-126013097D01*
X85681579Y-126137553D01*
X85575256Y-126158702D01*
X85362611Y-126201000D01*
X85037389Y-126201000D01*
X84824744Y-126158702D01*
X84718421Y-126137553D01*
X84417958Y-126013097D01*
X84147549Y-125832415D01*
X83917585Y-125602451D01*
X83736903Y-125332042D01*
X83612447Y-125031579D01*
X83549000Y-124712609D01*
X83549000Y-124387391D01*
X83612447Y-124068421D01*
X83736903Y-123767958D01*
X83917585Y-123497549D01*
X84147549Y-123267585D01*
X84417958Y-123086903D01*
X84718421Y-122962447D01*
X84824744Y-122941298D01*
X85037389Y-122899000D01*
X85362611Y-122899000D01*
X85575256Y-122941298D01*
X85575256Y-122941298D01*
G37*
G36*
X64620866Y-120385527D02*
G01*
X64804501Y-120422054D01*
X65150461Y-120565356D01*
X65461817Y-120773397D01*
X65726603Y-121038183D01*
X65934644Y-121349539D01*
X66077946Y-121695499D01*
X66151000Y-122062768D01*
X66151000Y-122437232D01*
X66077946Y-122804501D01*
X65934644Y-123150461D01*
X65726603Y-123461817D01*
X65461817Y-123726603D01*
X65150461Y-123934644D01*
X64804501Y-124077946D01*
X64437233Y-124151000D01*
X64062767Y-124151000D01*
X63695499Y-124077946D01*
X63349539Y-123934644D01*
X63038183Y-123726603D01*
X62773397Y-123461817D01*
X62565356Y-123150461D01*
X62422054Y-122804501D01*
X62349000Y-122437232D01*
X62349000Y-122062768D01*
X62422054Y-121695499D01*
X62565356Y-121349539D01*
X62773397Y-121038183D01*
X63038183Y-120773397D01*
X63349539Y-120565356D01*
X63695499Y-120422054D01*
X63879134Y-120385527D01*
X64062767Y-120349000D01*
X64437233Y-120349000D01*
X64620866Y-120385527D01*
X64620866Y-120385527D01*
G37*
G36*
X64625256Y-113641298D02*
G01*
X64731579Y-113662447D01*
X65032042Y-113786903D01*
X65302451Y-113967585D01*
X65532415Y-114197549D01*
X65713097Y-114467958D01*
X65837553Y-114768421D01*
X65901000Y-115087391D01*
X65901000Y-115412609D01*
X65837553Y-115731579D01*
X65713097Y-116032042D01*
X65532415Y-116302451D01*
X65302451Y-116532415D01*
X65032042Y-116713097D01*
X64731579Y-116837553D01*
X64625256Y-116858702D01*
X64412611Y-116901000D01*
X64087389Y-116901000D01*
X63874744Y-116858702D01*
X63768421Y-116837553D01*
X63467958Y-116713097D01*
X63197549Y-116532415D01*
X62967585Y-116302451D01*
X62786903Y-116032042D01*
X62662447Y-115731579D01*
X62599000Y-115412609D01*
X62599000Y-115087391D01*
X62662447Y-114768421D01*
X62786903Y-114467958D01*
X62967585Y-114197549D01*
X63197549Y-113967585D01*
X63467958Y-113786903D01*
X63768421Y-113662447D01*
X63874744Y-113641298D01*
X64087389Y-113599000D01*
X64412611Y-113599000D01*
X64625256Y-113641298D01*
X64625256Y-113641298D01*
G37*
G36*
X85834239Y-105061467D02*
G01*
X86148282Y-105123934D01*
X86739926Y-105369001D01*
X87166477Y-105654014D01*
X87272391Y-105724783D01*
X87725217Y-106177609D01*
X87733729Y-106190348D01*
X88080999Y-106710074D01*
X88326066Y-107301718D01*
X88451000Y-107929804D01*
X88451000Y-108570196D01*
X88326066Y-109198282D01*
X88080999Y-109789926D01*
X87725216Y-110322392D01*
X87272392Y-110775216D01*
X86739926Y-111130999D01*
X86148282Y-111376066D01*
X85834239Y-111438533D01*
X85520197Y-111501000D01*
X84879803Y-111501000D01*
X84565761Y-111438533D01*
X84251718Y-111376066D01*
X83660074Y-111130999D01*
X83127608Y-110775216D01*
X82674784Y-110322392D01*
X82319001Y-109789926D01*
X82073934Y-109198282D01*
X81949000Y-108570196D01*
X81949000Y-107929804D01*
X82073934Y-107301718D01*
X82319001Y-106710074D01*
X82666271Y-106190348D01*
X82674783Y-106177609D01*
X83127609Y-105724783D01*
X83233523Y-105654014D01*
X83660074Y-105369001D01*
X84251718Y-105123934D01*
X84565761Y-105061467D01*
X84879803Y-104999000D01*
X85520197Y-104999000D01*
X85834239Y-105061467D01*
X85834239Y-105061467D01*
G37*
G36*
X64366191Y-102809727D02*
G01*
X64569113Y-102850091D01*
X65142558Y-103087620D01*
X65658645Y-103432459D01*
X66097541Y-103871355D01*
X66442380Y-104387442D01*
X66679909Y-104960887D01*
X66801000Y-105569654D01*
X66801000Y-106190346D01*
X66679909Y-106799113D01*
X66442380Y-107372558D01*
X66097541Y-107888645D01*
X65658645Y-108327541D01*
X65142558Y-108672380D01*
X64569113Y-108909909D01*
X64366191Y-108950273D01*
X63960348Y-109031000D01*
X63339652Y-109031000D01*
X62933809Y-108950273D01*
X62730887Y-108909909D01*
X62157442Y-108672380D01*
X61641355Y-108327541D01*
X61202459Y-107888645D01*
X60857620Y-107372558D01*
X60620091Y-106799113D01*
X60499000Y-106190346D01*
X60499000Y-105569654D01*
X60620091Y-104960887D01*
X60857620Y-104387442D01*
X61202459Y-103871355D01*
X61641355Y-103432459D01*
X62157442Y-103087620D01*
X62730887Y-102850091D01*
X62933809Y-102809727D01*
X63339652Y-102729000D01*
X63960348Y-102729000D01*
X64366191Y-102809727D01*
X64366191Y-102809727D01*
G37*
G36*
X105866191Y-102809727D02*
G01*
X106069113Y-102850091D01*
X106642558Y-103087620D01*
X107158645Y-103432459D01*
X107597541Y-103871355D01*
X107942380Y-104387442D01*
X108179909Y-104960887D01*
X108301000Y-105569654D01*
X108301000Y-106190346D01*
X108179909Y-106799113D01*
X107942380Y-107372558D01*
X107597541Y-107888645D01*
X107158645Y-108327541D01*
X106642558Y-108672380D01*
X106069113Y-108909909D01*
X105866191Y-108950273D01*
X105460348Y-109031000D01*
X104839652Y-109031000D01*
X104433809Y-108950273D01*
X104230887Y-108909909D01*
X103657442Y-108672380D01*
X103141355Y-108327541D01*
X102702459Y-107888645D01*
X102357620Y-107372558D01*
X102120091Y-106799113D01*
X101999000Y-106190346D01*
X101999000Y-105569654D01*
X102120091Y-104960887D01*
X102357620Y-104387442D01*
X102702459Y-103871355D01*
X103141355Y-103432459D01*
X103657442Y-103087620D01*
X104230887Y-102850091D01*
X104433809Y-102809727D01*
X104839652Y-102729000D01*
X105460348Y-102729000D01*
X105866191Y-102809727D01*
X105866191Y-102809727D01*
G37*
G36*
X81370866Y-90235527D02*
G01*
X81554501Y-90272054D01*
X81900461Y-90415356D01*
X82211817Y-90623397D01*
X82476603Y-90888183D01*
X82684644Y-91199539D01*
X82827946Y-91545499D01*
X82901000Y-91912768D01*
X82901000Y-92287232D01*
X82827946Y-92654501D01*
X82684644Y-93000461D01*
X82476603Y-93311817D01*
X82211817Y-93576603D01*
X81900461Y-93784644D01*
X81554501Y-93927946D01*
X81370866Y-93964473D01*
X81187233Y-94001000D01*
X80812767Y-94001000D01*
X80445499Y-93927946D01*
X80099539Y-93784644D01*
X79788183Y-93576603D01*
X79523397Y-93311817D01*
X79315356Y-93000461D01*
X79172054Y-92654501D01*
X79099000Y-92287232D01*
X79099000Y-91912768D01*
X79172054Y-91545499D01*
X79315356Y-91199539D01*
X79523397Y-90888183D01*
X79788183Y-90623397D01*
X80099539Y-90415356D01*
X80445499Y-90272054D01*
X80629134Y-90235527D01*
X80812767Y-90199000D01*
X81187233Y-90199000D01*
X81370866Y-90235527D01*
X81370866Y-90235527D01*
G37*
G36*
X98120866Y-90235527D02*
G01*
X98304501Y-90272054D01*
X98650461Y-90415356D01*
X98961817Y-90623397D01*
X99226603Y-90888183D01*
X99434644Y-91199539D01*
X99577946Y-91545499D01*
X99651000Y-91912768D01*
X99651000Y-92287232D01*
X99577946Y-92654501D01*
X99434644Y-93000461D01*
X99226603Y-93311817D01*
X98961817Y-93576603D01*
X98650461Y-93784644D01*
X98304501Y-93927946D01*
X98120866Y-93964473D01*
X97937233Y-94001000D01*
X97562767Y-94001000D01*
X97195499Y-93927946D01*
X96849539Y-93784644D01*
X96538183Y-93576603D01*
X96273397Y-93311817D01*
X96065356Y-93000461D01*
X95922054Y-92654501D01*
X95849000Y-92287232D01*
X95849000Y-91912768D01*
X95922054Y-91545499D01*
X96065356Y-91199539D01*
X96273397Y-90888183D01*
X96538183Y-90623397D01*
X96849539Y-90415356D01*
X97195499Y-90272054D01*
X97379134Y-90235527D01*
X97562767Y-90199000D01*
X97937233Y-90199000D01*
X98120866Y-90235527D01*
X98120866Y-90235527D01*
G37*
G36*
X89870866Y-90235527D02*
G01*
X90054501Y-90272054D01*
X90400461Y-90415356D01*
X90711817Y-90623397D01*
X90976603Y-90888183D01*
X91184644Y-91199539D01*
X91327946Y-91545499D01*
X91401000Y-91912768D01*
X91401000Y-92287232D01*
X91327946Y-92654501D01*
X91184644Y-93000461D01*
X90976603Y-93311817D01*
X90711817Y-93576603D01*
X90400461Y-93784644D01*
X90054501Y-93927946D01*
X89870866Y-93964473D01*
X89687233Y-94001000D01*
X89312767Y-94001000D01*
X88945499Y-93927946D01*
X88599539Y-93784644D01*
X88288183Y-93576603D01*
X88023397Y-93311817D01*
X87815356Y-93000461D01*
X87672054Y-92654501D01*
X87599000Y-92287232D01*
X87599000Y-91912768D01*
X87672054Y-91545499D01*
X87815356Y-91199539D01*
X88023397Y-90888183D01*
X88288183Y-90623397D01*
X88599539Y-90415356D01*
X88945499Y-90272054D01*
X89129134Y-90235527D01*
X89312767Y-90199000D01*
X89687233Y-90199000D01*
X89870866Y-90235527D01*
X89870866Y-90235527D01*
G37*
G36*
X73120866Y-90235527D02*
G01*
X73304501Y-90272054D01*
X73650461Y-90415356D01*
X73961817Y-90623397D01*
X74226603Y-90888183D01*
X74434644Y-91199539D01*
X74577946Y-91545499D01*
X74651000Y-91912768D01*
X74651000Y-92287232D01*
X74577946Y-92654501D01*
X74434644Y-93000461D01*
X74226603Y-93311817D01*
X73961817Y-93576603D01*
X73650461Y-93784644D01*
X73304501Y-93927946D01*
X73120866Y-93964473D01*
X72937233Y-94001000D01*
X72562767Y-94001000D01*
X72195499Y-93927946D01*
X71849539Y-93784644D01*
X71538183Y-93576603D01*
X71273397Y-93311817D01*
X71065356Y-93000461D01*
X70922054Y-92654501D01*
X70849000Y-92287232D01*
X70849000Y-91912768D01*
X70922054Y-91545499D01*
X71065356Y-91199539D01*
X71273397Y-90888183D01*
X71538183Y-90623397D01*
X71849539Y-90415356D01*
X72195499Y-90272054D01*
X72379134Y-90235527D01*
X72562767Y-90199000D01*
X72937233Y-90199000D01*
X73120866Y-90235527D01*
X73120866Y-90235527D01*
G37*
G36*
X107805256Y-86141298D02*
G01*
X107911579Y-86162447D01*
X108212042Y-86286903D01*
X108482451Y-86467585D01*
X108712415Y-86697549D01*
X108893097Y-86967958D01*
X109017553Y-87268421D01*
X109081000Y-87587391D01*
X109081000Y-87912609D01*
X109017553Y-88231579D01*
X108893097Y-88532042D01*
X108712415Y-88802451D01*
X108482451Y-89032415D01*
X108212042Y-89213097D01*
X107911579Y-89337553D01*
X107805256Y-89358702D01*
X107592611Y-89401000D01*
X107267389Y-89401000D01*
X107054744Y-89358702D01*
X106948421Y-89337553D01*
X106647958Y-89213097D01*
X106377549Y-89032415D01*
X106147585Y-88802451D01*
X105966903Y-88532042D01*
X105842447Y-88231579D01*
X105779000Y-87912609D01*
X105779000Y-87587391D01*
X105842447Y-87268421D01*
X105966903Y-86967958D01*
X106147585Y-86697549D01*
X106377549Y-86467585D01*
X106647958Y-86286903D01*
X106948421Y-86162447D01*
X107054744Y-86141298D01*
X107267389Y-86099000D01*
X107592611Y-86099000D01*
X107805256Y-86141298D01*
X107805256Y-86141298D01*
G37*
G36*
X105866191Y-75309727D02*
G01*
X106069113Y-75350091D01*
X106642558Y-75587620D01*
X107158645Y-75932459D01*
X107597541Y-76371355D01*
X107942380Y-76887442D01*
X108179909Y-77460887D01*
X108301000Y-78069654D01*
X108301000Y-78690346D01*
X108179909Y-79299113D01*
X107942380Y-79872558D01*
X107597541Y-80388645D01*
X107158645Y-80827541D01*
X106642558Y-81172380D01*
X106069113Y-81409909D01*
X105866191Y-81450273D01*
X105460348Y-81531000D01*
X104839652Y-81531000D01*
X104433809Y-81450273D01*
X104230887Y-81409909D01*
X103657442Y-81172380D01*
X103141355Y-80827541D01*
X102702459Y-80388645D01*
X102357620Y-79872558D01*
X102120091Y-79299113D01*
X101999000Y-78690346D01*
X101999000Y-78069654D01*
X102120091Y-77460887D01*
X102357620Y-76887442D01*
X102702459Y-76371355D01*
X103141355Y-75932459D01*
X103657442Y-75587620D01*
X104230887Y-75350091D01*
X104433809Y-75309727D01*
X104839652Y-75229000D01*
X105460348Y-75229000D01*
X105866191Y-75309727D01*
X105866191Y-75309727D01*
G37*
G36*
X105866191Y-62309727D02*
G01*
X106069113Y-62350091D01*
X106642558Y-62587620D01*
X107158645Y-62932459D01*
X107597541Y-63371355D01*
X107942380Y-63887442D01*
X108179909Y-64460887D01*
X108301000Y-65069654D01*
X108301000Y-65690346D01*
X108179909Y-66299113D01*
X107942380Y-66872558D01*
X107597541Y-67388645D01*
X107158645Y-67827541D01*
X106642558Y-68172380D01*
X106069113Y-68409909D01*
X105866191Y-68450273D01*
X105460348Y-68531000D01*
X104839652Y-68531000D01*
X104433809Y-68450273D01*
X104230887Y-68409909D01*
X103657442Y-68172380D01*
X103141355Y-67827541D01*
X102702459Y-67388645D01*
X102357620Y-66872558D01*
X102120091Y-66299113D01*
X101999000Y-65690346D01*
X101999000Y-65069654D01*
X102120091Y-64460887D01*
X102357620Y-63887442D01*
X102702459Y-63371355D01*
X103141355Y-62932459D01*
X103657442Y-62587620D01*
X104230887Y-62350091D01*
X104433809Y-62309727D01*
X104839652Y-62229000D01*
X105460348Y-62229000D01*
X105866191Y-62309727D01*
X105866191Y-62309727D01*
G37*
G36*
X107805256Y-56141298D02*
G01*
X107911579Y-56162447D01*
X108212042Y-56286903D01*
X108482451Y-56467585D01*
X108712415Y-56697549D01*
X108893097Y-56967958D01*
X109017553Y-57268421D01*
X109081000Y-57587391D01*
X109081000Y-57912609D01*
X109017553Y-58231579D01*
X108893097Y-58532042D01*
X108712415Y-58802451D01*
X108482451Y-59032415D01*
X108212042Y-59213097D01*
X107911579Y-59337553D01*
X107805256Y-59358702D01*
X107592611Y-59401000D01*
X107267389Y-59401000D01*
X107054744Y-59358702D01*
X106948421Y-59337553D01*
X106647958Y-59213097D01*
X106377549Y-59032415D01*
X106147585Y-58802451D01*
X105966903Y-58532042D01*
X105842447Y-58231579D01*
X105779000Y-57912609D01*
X105779000Y-57587391D01*
X105842447Y-57268421D01*
X105966903Y-56967958D01*
X106147585Y-56697549D01*
X106377549Y-56467585D01*
X106647958Y-56286903D01*
X106948421Y-56162447D01*
X107054744Y-56141298D01*
X107267389Y-56099000D01*
X107592611Y-56099000D01*
X107805256Y-56141298D01*
X107805256Y-56141298D01*
G37*
G36*
X76052163Y-52121861D02*
G01*
X76304501Y-52172054D01*
X76650461Y-52315356D01*
X76961817Y-52523397D01*
X77226603Y-52788183D01*
X77434644Y-53099539D01*
X77577946Y-53445499D01*
X77651000Y-53812768D01*
X77651000Y-54187232D01*
X77577946Y-54554501D01*
X77434644Y-54900461D01*
X77226603Y-55211817D01*
X76961817Y-55476603D01*
X76650461Y-55684644D01*
X76304501Y-55827946D01*
X76120866Y-55864473D01*
X75937233Y-55901000D01*
X75562767Y-55901000D01*
X75379134Y-55864473D01*
X75195499Y-55827946D01*
X74849539Y-55684644D01*
X74538183Y-55476603D01*
X74273397Y-55211817D01*
X74065356Y-54900461D01*
X73922054Y-54554501D01*
X73849000Y-54187232D01*
X73849000Y-53812768D01*
X73922054Y-53445499D01*
X74065356Y-53099539D01*
X74273397Y-52788183D01*
X74538183Y-52523397D01*
X74849539Y-52315356D01*
X75195499Y-52172054D01*
X75447837Y-52121861D01*
X75562767Y-52099000D01*
X75937233Y-52099000D01*
X76052163Y-52121861D01*
X76052163Y-52121861D01*
G37*
G36*
X95052163Y-52121861D02*
G01*
X95304501Y-52172054D01*
X95650461Y-52315356D01*
X95961817Y-52523397D01*
X96226603Y-52788183D01*
X96434644Y-53099539D01*
X96577946Y-53445499D01*
X96651000Y-53812768D01*
X96651000Y-54187232D01*
X96577946Y-54554501D01*
X96434644Y-54900461D01*
X96226603Y-55211817D01*
X95961817Y-55476603D01*
X95650461Y-55684644D01*
X95304501Y-55827946D01*
X95120866Y-55864473D01*
X94937233Y-55901000D01*
X94562767Y-55901000D01*
X94379134Y-55864473D01*
X94195499Y-55827946D01*
X93849539Y-55684644D01*
X93538183Y-55476603D01*
X93273397Y-55211817D01*
X93065356Y-54900461D01*
X92922054Y-54554501D01*
X92849000Y-54187232D01*
X92849000Y-53812768D01*
X92922054Y-53445499D01*
X93065356Y-53099539D01*
X93273397Y-52788183D01*
X93538183Y-52523397D01*
X93849539Y-52315356D01*
X94195499Y-52172054D01*
X94447837Y-52121861D01*
X94562767Y-52099000D01*
X94937233Y-52099000D01*
X95052163Y-52121861D01*
X95052163Y-52121861D01*
G37*
G36*
X107879487Y-50998996D02*
G01*
X108116253Y-51097068D01*
X108116255Y-51097069D01*
X108329339Y-51239447D01*
X108510553Y-51420661D01*
X108652932Y-51633747D01*
X108751004Y-51870513D01*
X108801000Y-52121861D01*
X108801000Y-52378139D01*
X108751004Y-52629487D01*
X108685269Y-52788184D01*
X108652931Y-52866255D01*
X108510553Y-53079339D01*
X108329339Y-53260553D01*
X108116255Y-53402931D01*
X108116254Y-53402932D01*
X108116253Y-53402932D01*
X107879487Y-53501004D01*
X107628139Y-53551000D01*
X107371861Y-53551000D01*
X107120513Y-53501004D01*
X106883747Y-53402932D01*
X106883746Y-53402932D01*
X106883745Y-53402931D01*
X106670661Y-53260553D01*
X106489447Y-53079339D01*
X106347069Y-52866255D01*
X106314731Y-52788184D01*
X106248996Y-52629487D01*
X106199000Y-52378139D01*
X106199000Y-52121861D01*
X106248996Y-51870513D01*
X106347068Y-51633747D01*
X106489447Y-51420661D01*
X106670661Y-51239447D01*
X106883745Y-51097069D01*
X106883747Y-51097068D01*
X107120513Y-50998996D01*
X107371861Y-50949000D01*
X107628139Y-50949000D01*
X107879487Y-50998996D01*
X107879487Y-50998996D01*
G37*
G36*
X63379487Y-50998996D02*
G01*
X63616253Y-51097068D01*
X63616255Y-51097069D01*
X63829339Y-51239447D01*
X64010553Y-51420661D01*
X64152932Y-51633747D01*
X64251004Y-51870513D01*
X64301000Y-52121861D01*
X64301000Y-52378139D01*
X64251004Y-52629487D01*
X64185269Y-52788184D01*
X64152931Y-52866255D01*
X64010553Y-53079339D01*
X63829339Y-53260553D01*
X63616255Y-53402931D01*
X63616254Y-53402932D01*
X63616253Y-53402932D01*
X63379487Y-53501004D01*
X63128139Y-53551000D01*
X62871861Y-53551000D01*
X62620513Y-53501004D01*
X62383747Y-53402932D01*
X62383746Y-53402932D01*
X62383745Y-53402931D01*
X62170661Y-53260553D01*
X61989447Y-53079339D01*
X61847069Y-52866255D01*
X61814731Y-52788184D01*
X61748996Y-52629487D01*
X61699000Y-52378139D01*
X61699000Y-52121861D01*
X61748996Y-51870513D01*
X61847068Y-51633747D01*
X61989447Y-51420661D01*
X62170661Y-51239447D01*
X62383745Y-51097069D01*
X62383747Y-51097068D01*
X62620513Y-50998996D01*
X62871861Y-50949000D01*
X63128139Y-50949000D01*
X63379487Y-50998996D01*
X63379487Y-50998996D01*
G37*
G36*
X68244098Y-40547033D02*
G01*
X68708350Y-40739332D01*
X68708352Y-40739333D01*
X69126168Y-41018509D01*
X69481491Y-41373832D01*
X69760667Y-41791648D01*
X69760668Y-41791650D01*
X69952967Y-42255902D01*
X70051000Y-42748747D01*
X70051000Y-43251253D01*
X69952967Y-43744098D01*
X69760668Y-44208350D01*
X69760667Y-44208352D01*
X69481491Y-44626168D01*
X69126168Y-44981491D01*
X68708352Y-45260667D01*
X68708351Y-45260668D01*
X68708350Y-45260668D01*
X68244098Y-45452967D01*
X67751253Y-45551000D01*
X67248747Y-45551000D01*
X66755902Y-45452967D01*
X66291650Y-45260668D01*
X66291649Y-45260668D01*
X66291648Y-45260667D01*
X65873832Y-44981491D01*
X65518509Y-44626168D01*
X65239333Y-44208352D01*
X65239332Y-44208350D01*
X65047033Y-43744098D01*
X64949000Y-43251253D01*
X64949000Y-42748747D01*
X65047033Y-42255902D01*
X65239332Y-41791650D01*
X65239333Y-41791648D01*
X65518509Y-41373832D01*
X65873832Y-41018509D01*
X66291648Y-40739333D01*
X66291650Y-40739332D01*
X66755902Y-40547033D01*
X67248747Y-40449000D01*
X67751253Y-40449000D01*
X68244098Y-40547033D01*
X68244098Y-40547033D01*
G37*
G36*
X103744098Y-40547033D02*
G01*
X104208350Y-40739332D01*
X104208352Y-40739333D01*
X104626168Y-41018509D01*
X104981491Y-41373832D01*
X105260667Y-41791648D01*
X105260668Y-41791650D01*
X105452967Y-42255902D01*
X105551000Y-42748747D01*
X105551000Y-43251253D01*
X105452967Y-43744098D01*
X105260668Y-44208350D01*
X105260667Y-44208352D01*
X104981491Y-44626168D01*
X104626168Y-44981491D01*
X104208352Y-45260667D01*
X104208351Y-45260668D01*
X104208350Y-45260668D01*
X103744098Y-45452967D01*
X103251253Y-45551000D01*
X102748747Y-45551000D01*
X102255902Y-45452967D01*
X101791650Y-45260668D01*
X101791649Y-45260668D01*
X101791648Y-45260667D01*
X101373832Y-44981491D01*
X101018509Y-44626168D01*
X100739333Y-44208352D01*
X100739332Y-44208350D01*
X100547033Y-43744098D01*
X100449000Y-43251253D01*
X100449000Y-42748747D01*
X100547033Y-42255902D01*
X100739332Y-41791650D01*
X100739333Y-41791648D01*
X101018509Y-41373832D01*
X101373832Y-41018509D01*
X101791648Y-40739333D01*
X101791650Y-40739332D01*
X102255902Y-40547033D01*
X102748747Y-40449000D01*
X103251253Y-40449000D01*
X103744098Y-40547033D01*
X103744098Y-40547033D01*
G37*
M02*
