M48
; DRILL file {KiCad (5.1.2)-1} date 3/2/2021 12:12:38 PM
; FORMAT={-:-/ absolute / inch / decimal}
; #@! TF.CreationDate,2021-03-02T12:12:38-08:00
; #@! TF.GenerationSoftware,Kicad,Pcbnew,(5.1.2)-1
; #@! TF.FileFunction,NonPlated,1,2,NPTH
FMAT,2
INCH
T1C0.0984
T2C0.1260
T3C0.1457
T4C0.2441
T5C0.2520
%
G90
G05
T1
X2.4803Y-2.0571
X4.2323Y-2.0571
X4.2323Y-6.1516
X2.4803Y-6.1516
T2
X3.3543Y-4.9035
X4.2295Y-3.4547
X2.5295Y-4.5374
X4.2295Y-2.2736
T3
X3.5236Y-3.626
X3.7303Y-2.126
X2.9823Y-2.126
X3.189Y-3.626
X2.5295Y-4.813
X3.8484Y-3.626
X2.8642Y-3.626
T4
X2.5059Y-4.1685
X4.1398Y-4.1685
X4.1398Y-2.574
X4.1398Y-3.0858
X2.5059Y-5.2315
T5
X2.5591Y-5.7776
X3.3543Y-4.2618
T0
M30
